<?xml version="1.0" standalone="no"?>
<!DOCTYPE svg PUBLIC "-//W3C//DTD SVG 20010904//EN"
 "http://www.w3.org/TR/2001/REC-SVG-20010904/DTD/svg10.dtd">
<svg version="1.0" xmlns="http://www.w3.org/2000/svg"
 width="321.000000pt" height="321.000000pt" viewBox="0 0 321.000000 321.000000"
 preserveAspectRatio="xMidYMid meet">
<metadata>
Created by potrace 1.14, written by Peter Selinger 2001-2017
</metadata>
<g transform="translate(0.000000,321.000000) scale(0.100000,-0.100000)"
fill="#000000" stroke="none">
<path d="M1714 2923 c-26 -43 -54 -86 -62 -95 -13 -15 -2 -36 104 -202 66
-103 126 -197 134 -211 8 -14 130 -205 270 -425 140 -220 262 -411 270 -425 8
-13 71 -113 140 -220 69 -107 132 -206 140 -220 8 -14 73 -115 143 -226 71
-111 135 -220 144 -243 22 -62 28 -191 10 -248 l-15 -47 47 24 c57 28 116 92
143 153 24 53 26 148 6 204 -7 20 -159 266 -338 547 -179 280 -330 518 -335
528 -6 10 -31 50 -56 88 -53 82 -207 324 -229 360 -8 14 -103 162 -210 330
-107 167 -200 313 -205 322 -6 10 -20 33 -32 51 l-21 33 -48 -78z"/>
<path d="M1490 2573 c-47 -75 -107 -171 -135 -214 -27 -43 -81 -128 -120 -189
-38 -60 -95 -149 -126 -198 -48 -73 -55 -89 -44 -102 7 -8 100 -150 207 -315
107 -165 224 -345 260 -400 85 -131 99 -159 104 -209 15 -180 -185 -298 -334
-197 -40 28 -78 81 -272 381 -124 192 -227 349 -230 349 -3 1 -63 -91 -135
-204 -71 -113 -147 -231 -167 -262 -21 -32 -47 -74 -58 -93 -11 -19 -112 -179
-225 -355 -112 -176 -205 -324 -205 -330 0 -7 447 -10 1324 -9 1239 1 1327 2
1380 19 121 38 207 159 200 281 -2 34 -11 78 -20 99 -12 29 -525 846 -709
1130 -18 28 -160 250 -315 495 -155 245 -285 448 -288 452 -4 3 -45 -55 -92
-129z"/>
<path d="M687 2022 c-135 -43 -196 -197 -132 -329 71 -145 262 -173 379 -57
41 42 58 81 63 149 13 169 -145 291 -310 237z"/>
</g>
</svg>
