<svg xmlns="http://www.w3.org/2000/svg" width="48" height="46" viewBox="0 0 48 46">
  <g id="folder_1_" data-name="folder (1)" transform="translate(0 -11)">
    <path id="Path_74" data-name="Path 74" d="M91.669,411H82.237a1.415,1.415,0,0,0,0,2.83h9.432a1.415,1.415,0,0,0,0-2.83Z" transform="translate(-73.261 -362.489)" fill="#e60f26"/>
    <path id="Path_75" data-name="Path 75" d="M84.746,353.83a1.415,1.415,0,1,0,0-2.83H75.314a1.415,1.415,0,1,0,0,2.83Z" transform="translate(-66.929 -308.092)" fill="#e60f26"/>
    <path id="Path_76" data-name="Path 76" d="M312.515,351h-10.1A1.415,1.415,0,0,0,301,352.415v5.659a1.415,1.415,0,0,0,1.415,1.415h9.449a1.415,1.415,0,0,0,1.405-1.253l.653-5.659A1.415,1.415,0,0,0,312.515,351Zm-1.914,5.659h-6.773v-2.83h7.1Z" transform="translate(-272.9 -308.148)" fill="#e60f26"/>
    <path id="Path_77" data-name="Path 77" d="M44.156,29.793V20.857a4.226,4.226,0,0,0-4.219-4.224H22.994l-1.646-3.3A4.2,4.2,0,0,0,17.574,11H8.062a4.226,4.226,0,0,0-4.219,4.224V29.793A4.223,4.223,0,0,0,.028,34.484L2.192,53.26A4.221,4.221,0,0,0,6.383,57H41.617a4.221,4.221,0,0,0,4.191-3.74l2.163-18.776A4.222,4.222,0,0,0,44.156,29.793ZM6.656,15.224a1.409,1.409,0,0,1,1.406-1.408h9.512a1.4,1.4,0,0,1,1.258.778l2.035,4.076a1.406,1.406,0,0,0,1.258.778H39.937a1.409,1.409,0,0,1,1.406,1.408v8.918H38.531v-6.1a1.407,1.407,0,0,0-1.406-1.408H10.875a1.407,1.407,0,0,0-1.406,1.408v6.1H6.656Zm29.062,9.857v4.694H12.281V25.082Zm9.459,9.08L43.014,52.937a1.407,1.407,0,0,1-1.4,1.247H6.383a1.407,1.407,0,0,1-1.4-1.247L2.822,34.161a1.407,1.407,0,0,1,1.4-1.57H43.781A1.407,1.407,0,0,1,45.178,34.161Z" fill="#646f87"/>
  </g>
</svg>
