<svg xmlns="http://www.w3.org/2000/svg" width="48" height="48" viewBox="0 0 48 48">
  <g id="graphs" transform="translate(0 -0.053)">
    <path id="Path_62" data-name="Path 62" d="M87.974,197.821H78.637a1.412,1.412,0,0,0-1.412,1.412v18.19a1.412,1.412,0,0,0,1.412,1.412h9.337a1.412,1.412,0,0,0,1.412-1.412v-18.19A1.412,1.412,0,0,0,87.974,197.821Zm-7.926,8.887h6.514v3.24H80.048Zm6.514-6.063v3.24H80.048v-3.24Zm-6.514,15.366v-3.24h6.514v3.24Z" transform="translate(-69.993 -179.271)" fill="#646f87"/>
    <path id="Path_63" data-name="Path 63" d="M43.333.053H4.667A4.673,4.673,0,0,0,0,4.721V43.385a4.673,4.673,0,0,0,4.667,4.668H43.333A4.673,4.673,0,0,0,48,43.385V4.721A4.673,4.673,0,0,0,43.333.053ZM4.667,2.867H43.333a1.857,1.857,0,0,1,1.854,1.855v6.421H2.813V4.721A1.857,1.857,0,0,1,4.667,2.867ZM43.333,45.239H4.667a1.856,1.856,0,0,1-1.854-1.855V13.955H45.187V43.385A1.857,1.857,0,0,1,43.333,45.239Z" fill="#646f87"/>
    <path id="Path_64" data-name="Path 64" d="M61.638,62.882a1.421,1.421,0,1,0-1.421-1.42A1.421,1.421,0,0,0,61.638,62.882Z" transform="translate(-54.55 -54.349)" fill="#e60f26"/>
    <path id="Path_65" data-name="Path 65" d="M123.045,62.883a1.421,1.421,0,1,0-1.421-1.42A1.421,1.421,0,0,0,123.045,62.883Z" transform="translate(-110.223 -54.35)" fill="#e60f26"/>
    <path id="Path_66" data-name="Path 66" d="M187.236,62.882a1.421,1.421,0,1,0-1.421-1.42,1.421,1.421,0,0,0,1.421,1.42Z" transform="translate(-168.396 -54.349)" fill="#e60f26"/>
    <path id="Path_67" data-name="Path 67" d="M251.268,168.961a3.8,3.8,0,0,0-3.777,1.547L244.1,169.9a3.828,3.828,0,0,0-3.064-2.972A3.79,3.79,0,0,0,236.632,170a3.813,3.813,0,0,0,6.986,2.679l3.232.579a3.844,3.844,0,0,0,.7,1.687l-2.18,3.043c-.059-.014-.119-.026-.18-.037a3.8,3.8,0,1,0-.2,7.515l2.166,3.136a3.828,3.828,0,0,0,2.622,5.678,3.8,3.8,0,1,0-.38-7.4l-1.919-2.779a3.786,3.786,0,0,0,.21-4.507l2.261-3.156a3.8,3.8,0,1,0,1.312-7.481Zm-10.314,2.509a.971.971,0,0,1-.734.16.974.974,0,1,1,.734-.16Zm2.611,10.045a.953.953,0,0,1,.4-.621.985.985,0,0,1,1.146,1.6c-.02.014-.04.026-.06.038a1.428,1.428,0,0,0-.15.073.973.973,0,0,1-.525.05A.992.992,0,0,1,243.566,181.515Zm6.864,8.052a1,1,0,0,1,.984,1.156.954.954,0,0,1-.4.621.971.971,0,0,1-.734.16.992.992,0,0,1-.807-1.14.953.953,0,0,1,.4-.621A.969.969,0,0,1,250.429,189.567Zm1.148-16.686a.953.953,0,0,1-.4.621.971.971,0,0,1-.734.16h0a1,1,0,0,1-.195-.055.989.989,0,0,1-.128-.063l-.011-.006a.99.99,0,0,1-.473-1.016.953.953,0,0,1,.4-.621.973.973,0,0,1,.734-.16A.992.992,0,0,1,251.577,172.881Z" transform="translate(-214.441 -151.285)" fill="#e60f26"/>
  </g>
</svg>
