<svg xmlns="http://www.w3.org/2000/svg" width="42.513" height="48.496" viewBox="0 0 42.513 48.496">
  <g id="service" transform="translate(-30.754 0.25)">
    <path id="Path_59" data-name="Path 59" d="M112.4,17.811h.758q.163.446.36.877l-.535.539a1.413,1.413,0,0,0,0,1.988l3.95,3.977a1.39,1.39,0,0,0,1.975,0l.535-.539q.428.2.871.362v.763a1.4,1.4,0,0,0,1.4,1.406H127.3a1.4,1.4,0,0,0,1.4-1.406v-.763q.444-.164.871-.362l.535.539a1.39,1.39,0,0,0,1.975,0l3.95-3.977a1.413,1.413,0,0,0,0-1.988l-.535-.539q.2-.431.36-.877h.758a1.4,1.4,0,0,0,1.4-1.406V10.781a1.4,1.4,0,0,0-1.4-1.406h-.758q-.163-.446-.36-.877l.535-.539a1.413,1.413,0,0,0,0-1.989l-3.95-3.977a1.39,1.39,0,0,0-1.975,0l-.535.539q-.428-.2-.871-.362V1.406A1.4,1.4,0,0,0,127.3,0h-5.587a1.4,1.4,0,0,0-1.4,1.406v.763q-.443.164-.871.362l-.535-.539a1.39,1.39,0,0,0-1.975,0l-3.95,3.977a1.413,1.413,0,0,0,0,1.988l.535.539q-.2.43-.36.877H112.4a1.4,1.4,0,0,0-1.4,1.406V16.4a1.4,1.4,0,0,0,1.4,1.406Zm1.4-5.625h.381a1.4,1.4,0,0,0,1.348-1.04,9.345,9.345,0,0,1,.91-2.217,1.413,1.413,0,0,0-.223-1.7l-.268-.27,1.975-1.989.268.27a1.39,1.39,0,0,0,1.684.224,9.214,9.214,0,0,1,2.2-.916A1.4,1.4,0,0,0,123.11,3.2V2.812H125.9V3.2a1.4,1.4,0,0,0,1.033,1.357,9.216,9.216,0,0,1,2.2.916,1.39,1.39,0,0,0,1.684-.224l.268-.27,1.975,1.989-.268.27a1.413,1.413,0,0,0-.223,1.7,9.352,9.352,0,0,1,.91,2.217,1.4,1.4,0,0,0,1.348,1.04h.381V15h-.381a1.4,1.4,0,0,0-1.348,1.04,9.353,9.353,0,0,1-.91,2.218,1.413,1.413,0,0,0,.223,1.7l.268.27-1.975,1.989-.268-.27a1.39,1.39,0,0,0-1.684-.224,9.214,9.214,0,0,1-2.2.916,1.4,1.4,0,0,0-1.033,1.357v.384h-2.793V23.99a1.4,1.4,0,0,0-1.033-1.357,9.219,9.219,0,0,1-2.2-.916,1.389,1.389,0,0,0-1.684.224l-.268.27-1.975-1.989.268-.27a1.413,1.413,0,0,0,.223-1.7,9.347,9.347,0,0,1-.91-2.218A1.4,1.4,0,0,0,114.18,15H113.8V12.187Z" transform="translate(-72.499 0)" fill="#e60f26" stroke="#eff0f3" stroke-width="0.5"/>
    <path id="Path_60" data-name="Path 60" d="M197.1,92.187a6.093,6.093,0,1,0-6.093-6.093A6.1,6.1,0,0,0,197.1,92.187Zm0-9.374a3.281,3.281,0,1,1-3.281,3.281A3.285,3.285,0,0,1,197.1,82.812Z" transform="translate(-145.092 -72.501)" fill="#646f87"/>
    <path id="Path_61" data-name="Path 61" d="M72.445,324.1a4.19,4.19,0,0,0-5.737-1.544L58.8,327.14a4.191,4.191,0,0,1-1.411.508,4.222,4.222,0,0,0-3.98-5.567H44.82a8.79,8.79,0,0,0-6.27,2.608l-7.133,7.164a1.409,1.409,0,0,0,.329,2.234l10.317,5.546a1.4,1.4,0,0,0,1.651-.246l2.548-2.559a2.313,2.313,0,0,1,1.65-.686H58.2a6.986,6.986,0,0,0,3.5-.942l9.208-5.34A4.233,4.233,0,0,0,72.445,324.1Zm-2.937,3.327-9.208,5.34a4.191,4.191,0,0,1-2.1.565H47.913a5.089,5.089,0,0,0-3.63,1.51l-1.814,1.821-7.738-4.16,5.8-5.824a6.014,6.014,0,0,1,4.29-1.785h8.588a1.406,1.406,0,0,1,0,2.812H48.741a1.406,1.406,0,0,0,0,2.812H56.7a6.986,6.986,0,0,0,3.5-.942l7.909-4.586a1.4,1.4,0,0,1,1.912.515A1.411,1.411,0,0,1,69.508,327.425Z" transform="translate(0 -291.803)" fill="#646f87" stroke="#eff0f3" stroke-width="0.5"/>
  </g>
</svg>
