<svg xmlns="http://www.w3.org/2000/svg" width="48.5" height="44.5" viewBox="0 0 48.5 44.5">
  <g id="browser-code" transform="translate(0.25 0.25)">
    <path id="coding" d="M26.224,16.5a1.879,1.879,0,0,1,1.829,2.382L23.8,33.779a1.9,1.9,0,0,1-3.659-1.017l4.258-14.9a1.9,1.9,0,0,1,1.83-1.366ZM11.756,25.43l4.637-3.866a1.858,1.858,0,0,0,.232-2.627,1.883,1.883,0,0,0-2.641-.231L9.341,22.578l-.009.008a4.353,4.353,0,0,0,0,6.66l.009.008,4.643,3.87a1.869,1.869,0,1,0,2.409-2.857L11.756,26.4a.638.638,0,0,1,0-.971Zm24.387.978-4.549,3.871a1.857,1.857,0,0,0-.205,2.629,1.882,1.882,0,0,0,2.644.2l4.544-3.866a4.352,4.352,0,0,0,.005-6.655l-4.549-3.871a1.882,1.882,0,0,0-2.644.2,1.857,1.857,0,0,0,.205,2.629l4.555,3.875a.638.638,0,0,1-.005.98Z" transform="translate(0.046 0)" fill="#e60f26" stroke="#eff0f3" stroke-width="0.5"/>
    <path id="coding-2" data-name="coding" d="M48,5.594V27.221a1.875,1.875,0,0,1-3.75,0V11.28H3.751V36.543A3.744,3.744,0,0,0,7.5,40.271h33a3.744,3.744,0,0,0,3.75-3.729,1.875,1.875,0,0,1,3.75,0A7.487,7.487,0,0,1,40.5,44H7.5A7.487,7.487,0,0,1,0,36.543V5.594A5.615,5.615,0,0,1,5.626,0h36.75A5.615,5.615,0,0,1,48,5.594Zm-15.094,0a1.875,1.875,0,1,0,1.875-1.864A1.872,1.872,0,0,0,32.907,5.594Zm9.375-1.864a1.864,1.864,0,1,0,1.875,1.864A1.872,1.872,0,0,0,42.282,3.729ZM3.751,7.551H29.514a5.552,5.552,0,0,1-.034-3.822H5.626A1.872,1.872,0,0,0,3.751,5.594Zm0,0" transform="translate(-0.001 0)" fill="#646f87" stroke="#eff0f3" stroke-width="0.5"/>
  </g>
</svg>
