<svg xmlns="http://www.w3.org/2000/svg" width="42" height="48" viewBox="0 0 42 48">
  <g id="cyber-security" transform="translate(-33.307 0)">
    <path id="Path_68" data-name="Path 68" d="M73.892,5.677C68.587,5.677,58.933,4.6,55.91.644A1.373,1.373,0,0,0,53.657.536c-3.56,3.957-13.236,5.14-18.936,5.14a1.413,1.413,0,0,0-1.415,1.412V29.673c0,10.172,11.778,16.386,20.7,18.318,1.152.249,21.3-4.825,21.3-18.318V7.088A1.413,1.413,0,0,0,73.892,5.677Zm-1.415,24c0,10.6-15.781,14.9-18.171,15.488-2.39-.589-18.171-4.887-18.171-15.488V8.484c10.923-.251,16.37-3.379,18.536-5.074,4.363,3.837,11.995,4.943,17.806,5.074V29.673Z" transform="translate(0 0)" fill="#646f87"/>
    <path id="Path_69" data-name="Path 69" d="M153.816,127.788v4.283h-1.41A1.409,1.409,0,0,0,151,133.483v11.295a1.409,1.409,0,0,0,1.406,1.412h16.871a1.409,1.409,0,0,0,1.406-1.412V133.483a1.409,1.409,0,0,0-1.406-1.412H156.628v-4.283a4.213,4.213,0,0,1,8.427,0,1.406,1.406,0,1,0,2.812,0,7.025,7.025,0,0,0-14.05,0Zm14.055,15.577H153.812v-8.471h14.059Z" transform="translate(-106.534 -109.456)" fill="#e60f26"/>
    <ellipse id="Ellipse_1" data-name="Ellipse 1" cx="1.406" cy="1.411" rx="1.406" ry="1.411" transform="translate(52.901 28.262)" fill="#646f87"/>
  </g>
</svg>
