<svg xmlns="http://www.w3.org/2000/svg" width="48" height="42" viewBox="0 0 48 42">
  <g id="live-chat" transform="translate(0 -31.007)">
    <path id="Path_49" data-name="Path 49" d="M43.781,42.206h-2.9a18.312,18.312,0,0,0-33.755,0H4.219A4.214,4.214,0,0,0,0,46.406v5.6a4.214,4.214,0,0,0,4.219,4.2H9.98l-.6-1.835A15.535,15.535,0,1,1,24.022,64.607a4.2,4.2,0,1,0,4.2,4.2V66.916a18.3,18.3,0,0,0,9.7-5.927,18.09,18.09,0,0,0,2.952-4.782h2.906A4.214,4.214,0,0,0,48,52.007v-5.6a4.214,4.214,0,0,0-4.219-4.2ZM6.194,53.407H4.219a1.4,1.4,0,0,1-1.406-1.4v-5.6a1.4,1.4,0,0,1,1.406-1.4H6.21q-.075.315-.139.632A18.4,18.4,0,0,0,6.194,53.407Zm19.213,15.4a1.406,1.406,0,0,1-2.812,0,1.419,1.419,0,0,1,1.432-1.4q.694,0,1.381-.054Zm19.781-16.8a1.4,1.4,0,0,1-1.406,1.4H41.789a18.256,18.256,0,0,0,.252-7.188q-.1-.61-.242-1.213h1.983a1.4,1.4,0,0,1,1.406,1.4Z" transform="translate(0 0)" fill="#646f87"/>
    <path id="Path_50" data-name="Path 50" d="M181,210.993h2.827v2.827H181Z" transform="translate(-164.037 -163.198)" fill="#646f87"/>
    <path id="Path_51" data-name="Path 51" d="M241,210.993h2.827v2.827H241Z" transform="translate(-218.414 -163.198)" fill="#646f87"/>
    <path id="Path_52" data-name="Path 52" d="M301,210.993h2.827v2.827H301Z" transform="translate(-272.791 -163.198)" fill="#646f87"/>
    <path id="Path_53" data-name="Path 53" d="M121,113.612v2.827h12.6a12.67,12.67,0,1,0-9.906-4.864A2.787,2.787,0,0,1,121,113.612ZM133.6,93.82a9.9,9.9,0,0,1,0,19.792H125.85a5.671,5.671,0,0,0,.725-2.306l.055-.605-.4-.457A9.917,9.917,0,0,1,133.6,93.82Z" transform="translate(-109.596 -54.332)" fill="#e60f26"/>
  </g>
</svg>
