<svg id="file_3_" data-name="file (3)" xmlns="http://www.w3.org/2000/svg" width="48" height="48" viewBox="0 0 48 48">
  <g id="Group_47" data-name="Group 47" transform="translate(0 0)">
    <g id="Group_46" data-name="Group 46">
      <rect id="Rectangle_80" data-name="Rectangle 80" width="11" height="3" transform="translate(17.014 32.898)" fill="#e60f26"/>
      <rect id="Rectangle_81" data-name="Rectangle 81" width="22" height="3" transform="translate(16.932 24.973)" fill="#e60f26"/>
      <path id="Path_73" data-name="Path 73" d="M42.375,7.5H40.5V5.625A5.631,5.631,0,0,0,34.875,0H5.625A5.631,5.631,0,0,0,0,5.625v29.25A5.631,5.631,0,0,0,5.625,40.5H7.5v1.875A5.631,5.631,0,0,0,13.125,48H34.671L48,34.607V13.125A5.631,5.631,0,0,0,42.375,7.5ZM7.5,13.125V36.75H5.625A1.877,1.877,0,0,1,3.75,34.875V5.625A1.877,1.877,0,0,1,5.625,3.75h29.25A1.877,1.877,0,0,1,36.75,5.625V7.5H13.125A5.631,5.631,0,0,0,7.5,13.125ZM35.8,41.548V37.583a1.877,1.877,0,0,1,1.875-1.875h3.937Zm8.448-9.59H37.677a5.631,5.631,0,0,0-5.625,5.625V44.25H13.125a1.877,1.877,0,0,1-1.875-1.875V13.125a1.877,1.877,0,0,1,1.875-1.875h29.25a1.877,1.877,0,0,1,1.875,1.875Z" transform="translate(0 0)" fill="#646f87"/>
      <rect id="Rectangle_82" data-name="Rectangle 82" width="22" height="3" transform="translate(16.932 17.048)" fill="#e60f26"/>
    </g>
  </g>
</svg>
