<svg xmlns="http://www.w3.org/2000/svg" width="43" height="48" viewBox="0 0 43 48">
  <g id="writing_1_" data-name="writing (1)" transform="translate(-26.57)">
    <g id="Group_45" data-name="Group 45" transform="translate(26.57)">
      <g id="Group_44" data-name="Group 44">
        <path id="Path_54" data-name="Path 54" d="M129.537,201.876A1.876,1.876,0,0,0,127.661,200H108.335a1.876,1.876,0,0,0,0,3.753h19.326A1.876,1.876,0,0,0,129.537,201.876Z" transform="translate(-98.982 -181.251)" fill="#646f87"/>
        <path id="Path_55" data-name="Path 55" d="M108.335,280a1.876,1.876,0,1,0,0,3.753h11.737a1.876,1.876,0,1,0,0-3.753Z" transform="translate(-98.977 -253.752)" fill="#646f87"/>
        <path id="Path_56" data-name="Path 56" d="M40.333,44.25H34.066a3.753,3.753,0,0,1-3.748-3.75V7.5a3.753,3.753,0,0,1,3.748-3.75H57.1A3.753,3.753,0,0,1,60.853,7.5V19.031a1.874,1.874,0,1,0,3.748,0V7.5A7.506,7.506,0,0,0,57.1,0H34.066a7.506,7.506,0,0,0-7.5,7.5v33a7.506,7.506,0,0,0,7.5,7.5h6.267a1.875,1.875,0,0,0,0-3.75Z" transform="translate(-26.57)" fill="#646f87"/>
        <path id="Path_57" data-name="Path 57" d="M264.512,273.67a5.635,5.635,0,0,0-7.959,0l-10.3,10.278a1.877,1.877,0,0,0-.47.783l-2.243,7.386a1.876,1.876,0,0,0,2.3,2.354l7.573-2.1a1.876,1.876,0,0,0,.825-.48l10.28-10.26A5.635,5.635,0,0,0,264.512,273.67ZM251.93,288.887l-3.81,1.055,1.115-3.671,6.951-6.935,2.654,2.654Zm9.929-9.91-.364.363-2.654-2.654.362-.362a1.876,1.876,0,0,1,2.655,2.652Z" transform="translate(-223.158 -246.537)" fill="#e60f26"/>
        <path id="Path_58" data-name="Path 58" d="M127.661,120H108.335a1.876,1.876,0,0,0,0,3.753h19.326a1.876,1.876,0,1,0,0-3.753Z" transform="translate(-98.982 -108.751)" fill="#646f87"/>
      </g>
    </g>
  </g>
</svg>
