<svg xmlns="http://www.w3.org/2000/svg" width="24" height="24" viewBox="0 0 24 24">
  <g id="email" transform="translate(-992 -616)">
    <rect id="Rectangle_369" data-name="Rectangle 369" width="24" height="24" rx="6" transform="translate(992 616)" fill="#f1f1f4"/>
    <g id="email_black_24dp" transform="translate(996 620)">
      <path id="Path_105" data-name="Path 105" d="M0,0H16V16H0Z" fill="none"/>
      <path id="Path_106" data-name="Path 106" d="M14,4H3.333A1.332,1.332,0,0,0,2.007,5.333l-.007,8a1.337,1.337,0,0,0,1.333,1.333H14a1.337,1.337,0,0,0,1.333-1.333v-8A1.337,1.337,0,0,0,14,4Zm0,2.667L8.667,10,3.333,6.667V5.333L8.667,8.667,14,5.333Z" transform="translate(-0.667 -1.333)" fill="#646f87"/>
    </g>
  </g>
</svg>
