<svg xmlns="http://www.w3.org/2000/svg" width="32" height="32" viewBox="0 0 32 32">
  <g id="Group_60" data-name="Group 60" transform="translate(-975 -3942)">
    <rect id="Rectangle_144" data-name="Rectangle 144" width="32" height="32" rx="6" transform="translate(975 3942)" fill="#f1f1f4"/>
    <g id="instagram" transform="translate(982.551 3950)">
      <path id="Path_83" data-name="Path 83" d="M16.408,4.7a5.846,5.846,0,0,0-.372-1.941A4.1,4.1,0,0,0,13.694.422,5.864,5.864,0,0,0,11.753.05C10.9.009,10.624,0,8.452,0s-2.445.009-3.3.047A5.85,5.85,0,0,0,3.212.419a3.9,3.9,0,0,0-1.419.925A3.939,3.939,0,0,0,.871,2.76,5.861,5.861,0,0,0,.5,4.7C.458,5.557.449,5.829.449,8S.458,10.446.5,11.3A5.845,5.845,0,0,0,.868,13.24a4.1,4.1,0,0,0,2.341,2.341,5.864,5.864,0,0,0,1.941.372C6,15.991,6.276,16,8.449,16s2.445-.009,3.3-.047a5.847,5.847,0,0,0,1.941-.372A4.093,4.093,0,0,0,16.03,13.24,5.865,5.865,0,0,0,16.4,11.3c.037-.853.047-1.125.047-3.3s0-2.444-.041-3.3Zm-1.441,6.533a4.385,4.385,0,0,1-.275,1.485,2.654,2.654,0,0,1-1.519,1.519,4.4,4.4,0,0,1-1.485.275c-.844.038-1.1.047-3.232.047s-2.392-.009-3.233-.047a4.385,4.385,0,0,1-1.485-.275,2.463,2.463,0,0,1-.919-.6,2.488,2.488,0,0,1-.6-.919,4.4,4.4,0,0,1-.275-1.485c-.038-.844-.047-1.1-.047-3.232s.009-2.391.047-3.232a4.383,4.383,0,0,1,.275-1.485,2.432,2.432,0,0,1,.6-.919,2.484,2.484,0,0,1,.919-.6A4.406,4.406,0,0,1,5.225,1.5c.844-.037,1.1-.047,3.232-.047s2.392.009,3.233.047a4.387,4.387,0,0,1,1.485.275,2.461,2.461,0,0,1,.919.6,2.487,2.487,0,0,1,.6.919,4.4,4.4,0,0,1,.275,1.485c.037.844.047,1.1.047,3.232s-.009,2.385-.047,3.229Zm0,0" fill="#646f87"/>
      <path id="Path_84" data-name="Path 84" d="M129.18,124.5a4.23,4.23,0,1,0,4.231,4.23A4.231,4.231,0,0,0,129.18,124.5Zm0,6.973a2.744,2.744,0,1,1,2.745-2.744A2.745,2.745,0,0,1,129.18,131.473Zm0,0" transform="translate(-120.728 -120.728)" fill="#646f87"/>
      <path id="Path_85" data-name="Path 85" d="M364.31,89.532a.93.93,0,1,1-.93-.93A.93.93,0,0,1,364.31,89.532Zm0,0" transform="translate(-350.637 -85.821)" fill="#646f87"/>
    </g>
  </g>
</svg>
