<svg xmlns="http://www.w3.org/2000/svg" width="32" height="32" viewBox="0 0 32 32">
  <g id="Group_59" data-name="Group 59" transform="translate(-920 -3942)">
    <rect id="Rectangle_143" data-name="Rectangle 143" width="32" height="32" rx="6" transform="translate(920 3942)" fill="#f1f1f4"/>
    <g id="twitter" transform="translate(928 3904)">
      <g id="Group_57" data-name="Group 57" transform="translate(0 48)">
        <path id="Path_86" data-name="Path 86" d="M16,49.539a6.838,6.838,0,0,1-1.89.518,3.261,3.261,0,0,0,1.443-1.813,6.554,6.554,0,0,1-2.08.794A3.279,3.279,0,0,0,7.8,51.28a3.377,3.377,0,0,0,.076.748,9.283,9.283,0,0,1-6.76-3.43,3.28,3.28,0,0,0,1.008,4.383,3.239,3.239,0,0,1-1.482-.4v.036a3.3,3.3,0,0,0,2.628,3.222,3.273,3.273,0,0,1-.86.108,2.9,2.9,0,0,1-.621-.056,3.311,3.311,0,0,0,3.064,2.285,6.59,6.59,0,0,1-4.066,1.4A6.143,6.143,0,0,1,0,59.526,9.233,9.233,0,0,0,5.031,61a9.27,9.27,0,0,0,9.334-9.332c0-.145,0-.285-.012-.424A6.542,6.542,0,0,0,16,49.539Z" transform="translate(0 -48)" fill="#646f87"/>
      </g>
    </g>
  </g>
</svg>
