<svg xmlns="http://www.w3.org/2000/svg" width="52.172" height="56" viewBox="0 0 52.172 56">
  <g id="Group_16" data-name="Group 16" transform="translate(-67.262 -862.817)">
    <path id="Path_21" data-name="Path 21" d="M119.148,883.752a2.189,2.189,0,0,0-2.189-2.189H94.41a2.189,2.189,0,0,0,0,4.378h22.549A2.189,2.189,0,0,0,119.148,883.752Zm-8.744,8.757a2.189,2.189,0,0,0-2.189-2.189H94.41a2.189,2.189,0,0,0,0,4.378h13.8A2.189,2.189,0,0,0,110.4,892.509ZM94.41,899.076a2.189,2.189,0,1,0,0,4.378h9.1a2.189,2.189,0,1,0,0-4.378Z" transform="translate(-7.475 -5.614)" fill="#646f87"/>
    <path id="Path_22" data-name="Path 22" d="M122.7,870.677a9.37,9.37,0,0,0-.315-1.611,8.788,8.788,0,0,0-8.4-6.249H87.074a8.76,8.76,0,0,0-8.757,8.757V910.06c0,.3.014.6.042.89a7.692,7.692,0,0,0,.119.82,8.8,8.8,0,0,0,8.6,7.047h26.914a8.764,8.764,0,0,0,8.757-8.757V871.531C122.744,871.244,122.73,870.957,122.7,870.677Zm-4.336,39.384a4.38,4.38,0,0,1-4.378,4.378H87.074a4.389,4.389,0,0,1-4.357-3.93c-.014-.147-.021-.294-.021-.448V871.574a4.38,4.38,0,0,1,4.378-4.378h26.914a4.389,4.389,0,0,1,4.357,3.93,3.944,3.944,0,0,1,.021.406Z" transform="translate(-3.311)" fill="#646f87"/>
    <path id="Path_23" data-name="Path 23" d="M72.992,914.341a4.387,4.387,0,0,1-3.454-3.832c-.014-.147-.021-.294-.021-.448V871.574a4.237,4.237,0,0,1,3.205-4.36c1.5-2.669,4.149-4.4,5.359-4.4H73.9a8.76,8.76,0,0,0-8.757,8.757V910.06c0,.3.014.6.042.89a7.69,7.69,0,0,0,.119.82,8.8,8.8,0,0,0,8.6,7.047h6.732A8.77,8.77,0,0,1,72.992,914.341Z" transform="translate(2.123)" fill="#e60f26"/>
  </g>
</svg>
