<svg xmlns="http://www.w3.org/2000/svg" width="55.979" height="56" viewBox="0 0 55.979 56">
  <g id="Group_27" data-name="Group 27" transform="translate(-652.111 -862.789)">
    <path id="Path_30" data-name="Path 30" d="M699.321,862.789h-38.46c-.3,0-.6.014-.889.042a7.7,7.7,0,0,0-.819.119,8.788,8.788,0,0,0-7.042,8.589v26.9a8.758,8.758,0,0,0,8.75,8.75h9.849a2.188,2.188,0,0,0,0-4.375h-9.849a4.377,4.377,0,0,1-4.375-4.375v-26l23.605,16.528L703.7,872.435v12.552a2.188,2.188,0,0,0,4.375,0V871.539A8.754,8.754,0,0,0,699.321,862.789Zm-19.23,20.833-22.037-15.429a4.329,4.329,0,0,1,2.359-1.008c.147-.014.294-.021.448-.021h38.46a4.375,4.375,0,0,1,2.814,1.022Z" transform="translate(0 0)" fill="#646f87"/>
    <g id="Group_26" data-name="Group 26" transform="translate(679.039 889.737)">
      <g id="Group_25" data-name="Group 25">
        <g id="Group_24" data-name="Group 24">
          <path id="Path_31" data-name="Path 31" d="M719.376,911.96a1.922,1.922,0,0,0-.224-.308l-3.92-4.361-4.851-5.39a1.849,1.849,0,0,0-3.227,1.232v4.1a17.146,17.146,0,0,0-12.342,7.126,20.477,20.477,0,0,0-2.422,4.375,25.7,25.7,0,0,0-1.813,9.758,1.844,1.844,0,0,0,1.554,1.827,1.921,1.921,0,0,0,.287.021,1.856,1.856,0,0,0,1.764-1.26c1.953-5.866,6.2-8.946,12.972-9.4v3.934a1.849,1.849,0,0,0,3.283,1.169l8.771-10.724A1.831,1.831,0,0,0,719.376,911.96Zm-8.519,6.468v-.665A1.858,1.858,0,0,0,709,915.909c-.931,0-1.834.042-2.7.119a19.613,19.613,0,0,0-8.687,2.7A14.422,14.422,0,0,0,695.848,920c.182-.434.371-.861.581-1.267a14.961,14.961,0,0,1,3.283-4.375A13.483,13.483,0,0,1,709,910.833a1.852,1.852,0,0,0,1.855-1.848v-1.029l3.787,4.207.7.777-.3.371Z" transform="translate(-690.577 -901.285)" fill="#e60f26"/>
        </g>
      </g>
    </g>
  </g>
</svg>
