<svg xmlns="http://www.w3.org/2000/svg" width="51.673" height="55.83" viewBox="0 0 51.673 55.83">
  <g id="Group_31" data-name="Group 31" transform="translate(-107.931 -1117.593)">
    <path id="Path_32" data-name="Path 32" d="M123.852,1171.242a2.181,2.181,0,0,1-2.181,2.181h-5.016a8.733,8.733,0,0,1-8.723-8.723v-38.383a8.733,8.733,0,0,1,8.723-8.723h26.813a8.733,8.733,0,0,1,8.723,8.723v12.976a2.181,2.181,0,1,1-4.362,0v-12.976a4.367,4.367,0,0,0-4.362-4.362H116.654a4.367,4.367,0,0,0-4.362,4.362V1164.7a4.367,4.367,0,0,0,4.362,4.362h5.016A2.181,2.181,0,0,1,123.852,1171.242Zm19.615-38.383a2.181,2.181,0,0,0-2.181-2.181H118.823a2.181,2.181,0,1,0,0,4.362h22.463A2.181,2.181,0,0,0,143.467,1132.859Zm-8.711,8.723a2.181,2.181,0,0,0-2.181-2.181H118.823a2.181,2.181,0,1,0,0,4.362h13.752A2.181,2.181,0,0,0,134.756,1141.582Zm-15.933,6.542a2.181,2.181,0,1,0,0,4.362h9.063a2.181,2.181,0,1,0,0-4.362Z" fill="#646f87"/>
    <g id="Group_30" data-name="Group 30" transform="translate(130.641 1144.422)">
      <g id="Group_29" data-name="Group 29" transform="translate(0 0)">
        <g id="Group_28" data-name="Group 28">
          <path id="Path_33" data-name="Path 33" d="M152.91,1161.962v-4.083a1.843,1.843,0,0,0-3.217-1.228l-8.744,9.721a1.825,1.825,0,0,0-.056,2.394l8.744,10.691a1.829,1.829,0,0,0,1.242.67,1.841,1.841,0,0,0,2.031-1.835v-3.922c6.748.454,10.984,3.524,12.932,9.372A1.85,1.85,0,0,0,167.6,1185a1.909,1.909,0,0,0,.286-.021,1.838,1.838,0,0,0,1.549-1.822C169.436,1171.523,162.681,1162.939,152.91,1161.962Zm-1.842,3.594c5.974,0,10.761,3.42,13.113,9.135-3.238-2.708-7.628-4.076-13.113-4.076a1.853,1.853,0,0,0-1.849,1.849v.663l-4.473-5.471,4.473-4.969v1.026A1.847,1.847,0,0,0,151.068,1165.556Z" transform="translate(-140.473 -1156.037)" fill="#e60f26"/>
        </g>
      </g>
    </g>
  </g>
</svg>
