<svg xmlns="http://www.w3.org/2000/svg" width="50.671" height="56.232" viewBox="0 0 50.671 56.232">
  <g id="Group_41" data-name="Group 41" transform="translate(-1374.411 -1284)">
    <path id="Path_27" data-name="Path 27" d="M356.233,913.246a2.177,2.177,0,0,1-2.177,2.177h-5.008a8.718,8.718,0,0,1-8.708-8.708V868.4a8.718,8.718,0,0,1,8.708-8.708h26.766a8.718,8.718,0,0,1,8.708,8.708v12.953a2.177,2.177,0,0,1-4.354,0V868.4a4.359,4.359,0,0,0-4.354-4.354H349.048a4.359,4.359,0,0,0-4.354,4.354v38.315a4.359,4.359,0,0,0,4.354,4.354h5.008A2.177,2.177,0,0,1,356.233,913.246Zm19.581-38.315a2.177,2.177,0,0,0-2.177-2.177H351.213a2.177,2.177,0,1,0,0,4.354h22.423A2.177,2.177,0,0,0,375.813,874.93Zm-8.7,8.708a2.177,2.177,0,0,0-2.177-2.177H351.213a2.177,2.177,0,1,0,0,4.354h13.727A2.177,2.177,0,0,0,367.118,883.638Zm-15.9,6.531a2.177,2.177,0,1,0,0,4.354h9.047a2.177,2.177,0,1,0,0-4.354Z" transform="translate(1034.071 424.309)" fill="#646f87"/>
    <g id="Group_40" data-name="Group 40" transform="translate(1394.525 1309.574)">
      <path id="Subtraction_1" data-name="Subtraction 1" d="M25.654,30.158H4.4A4.409,4.409,0,0,1,.093,24.849,15.243,15.243,0,0,1,8.655,14.093a8.488,8.488,0,1,1,12.742,0,15.017,15.017,0,0,1,3.309,2.076,15.388,15.388,0,0,1,5.2,8.478c.008.032.017.067.025.1v0l.017.069a4.438,4.438,0,0,1-.905,3.713A4.353,4.353,0,0,1,25.654,30.158ZM15.023,17.047A10.943,10.943,0,0,0,4.357,25.734a.07.07,0,0,0,.028.07H25.654a.1.1,0,0,0,.034-.063v-.007A10.943,10.943,0,0,0,15.023,17.047Zm0-12.693a4.138,4.138,0,1,0,4.138,4.138A4.139,4.139,0,0,0,15.023,4.354Z" transform="translate(0 0)" fill="#e60f26" stroke="rgba(0,0,0,0)" stroke-miterlimit="10" stroke-width="1"/>
    </g>
  </g>
</svg>
