<svg xmlns="http://www.w3.org/2000/svg" width="44.361" height="56" viewBox="0 0 44.361 56">
  <g id="Group_32" data-name="Group 32" transform="translate(-691.861 -1118.816)">
    <path id="Path_34" data-name="Path 34" d="M725.358,1131.973H702.842a2.186,2.186,0,0,0,0,4.372h22.516a2.186,2.186,0,1,0,0-4.372Zm-8.729,8.743H702.842a2.186,2.186,0,0,0,0,4.372h13.787a2.186,2.186,0,0,0,0-4.372Zm-4.7,8.743h-9.086a2.186,2.186,0,0,0,0,4.372h9.086a2.186,2.186,0,0,0,0-4.372Zm15.619-30.644h-5.022a2.254,2.254,0,0,0-.441.042h5.463a8.774,8.774,0,0,1,8.387,6.239A8.75,8.75,0,0,0,727.547,1118.816Zm-26.874,55.958a8.781,8.781,0,0,1-8.583-7.037,8.752,8.752,0,0,0,8.583,7.079H705.7a2.245,2.245,0,0,0,.441-.042Z" transform="translate(-0.069)" fill="#646f87"/>
    <path id="Path_35" data-name="Path 35" d="M736.18,1126.724a9.354,9.354,0,0,0-.315-1.609,8.774,8.774,0,0,0-8.387-6.239H700.6a8.747,8.747,0,0,0-8.743,8.743v38.429c0,.3.014.6.042.888a7.678,7.678,0,0,0,.119.818,8.781,8.781,0,0,0,8.583,7.037h11.807a2.186,2.186,0,1,0,0-4.372H700.6a4.382,4.382,0,0,1-4.351-3.924c-.014-.147-.021-.294-.021-.448v-38.429a4.373,4.373,0,0,1,4.372-4.372h26.874a4.382,4.382,0,0,1,4.351,3.924,3.944,3.944,0,0,1,.021.406v22.39a2.186,2.186,0,0,0,4.372,0v-22.39C736.222,1127.291,736.208,1127,736.18,1126.724Z" transform="translate(0 -0.018)" fill="#646f87"/>
    <path id="Path_36" data-name="Path 36" d="M742.762,1173.213a9.381,9.381,0,0,0-5.106-1.5,9.478,9.478,0,0,0-9.485,9.478,9.362,9.362,0,0,0,1.5,5.106,9.478,9.478,0,1,0,13.094-13.087Zm-5.106,13.087a5.106,5.106,0,1,1,5.106-5.106A5.109,5.109,0,0,1,737.656,1186.3Z" transform="translate(-10.912 -15.898)" fill="#e60f26"/>
  </g>
</svg>
