<svg xmlns="http://www.w3.org/2000/svg" width="50.188" height="56" viewBox="0 0 50.188 56">
  <g id="Group_35" data-name="Group 35" transform="translate(-896.999 -857.201)">
    <g id="Group_34" data-name="Group 34" transform="translate(896.999 857.201)">
      <g id="Group_33" data-name="Group 33">
        <path id="Path_37" data-name="Path 37" d="M936.385,890.628a2.188,2.188,0,0,0-2.187-2.188H911.666a2.188,2.188,0,0,0,0,4.375H934.2A2.187,2.187,0,0,0,936.385,890.628Z" transform="translate(-900.74 -866.565)" fill="#646f87"/>
        <path id="Path_38" data-name="Path 38" d="M911.666,900.936a2.188,2.188,0,0,0,0,4.375h13.684a2.188,2.188,0,1,0,0-4.375Z" transform="translate(-900.74 -870.311)" fill="#646f87"/>
        <path id="Path_39" data-name="Path 39" d="M913.065,908.826h-7.316a4.38,4.38,0,0,1-4.375-4.374v-38.5a4.38,4.38,0,0,1,4.375-4.375h26.895a4.38,4.38,0,0,1,4.374,4.375V879.4a2.188,2.188,0,0,0,4.375,0V865.951a8.759,8.759,0,0,0-8.749-8.75H905.749a8.76,8.76,0,0,0-8.75,8.75v38.5a8.76,8.76,0,0,0,8.75,8.75h7.316a2.188,2.188,0,1,0,0-4.375Z" transform="translate(-896.999 -857.201)" fill="#646f87"/>
        <path id="Path_40" data-name="Path 40" d="M955.424,901.609a6.57,6.57,0,0,0-9.28,0l-12.01,11.983a2.184,2.184,0,0,0-.548.913l-2.615,8.61a2.188,2.188,0,0,0,2.677,2.744l8.829-2.446a2.19,2.19,0,0,0,.961-.56l11.985-11.962A6.571,6.571,0,0,0,955.424,901.609Zm-14.669,17.74-4.442,1.23,1.3-4.279,8.1-8.086,3.094,3.094ZM952.331,907.8l-.424.423-3.094-3.094.422-.422a2.188,2.188,0,0,1,3.095,3.092Z" transform="translate(-907.154 -869.938)" fill="#e60f26"/>
        <path id="Path_41" data-name="Path 41" d="M934.2,875.945H911.666a2.188,2.188,0,0,0,0,4.375H934.2a2.188,2.188,0,0,0,0-4.375Z" transform="translate(-900.74 -862.82)" fill="#646f87"/>
      </g>
    </g>
  </g>
</svg>
